<svg
	xmlns="http://www.w3.org/2000/svg" viewBox="0 0 1440 320">
	<path fill="rgb(255 255 255 / 3%)" d="M0,32,40,42.687C80,52.974,160,74.946,240,111.9s160,90.886,240,85.193c80-5.293,160-69.213,240-79.9,80-10.287,160,31.66,240,53.333,80,21.273,160,21.273,240,31.96,80,10.287,160,32.259,200,42.547l40,10.687v63.92H0Z"/>
	<path fill="rgb(255 255 255 / 3%)" d="M0,0,40,26.67c40,26.27,120,80.209,200,85.2S400,74.915,480,90.6c80,16.282,160,90.2,240,101.185s160-42.951,240-42.652c80-.3,160,53.639,240,69.322,80,16.282,160-5.694,200-15.982l40-10.688V319.638H0Z"/>
	<path fill="rgb(255 255 255 / 3%)" d="M0,32,40,74.646c40,42.247,120,128.139,200,143.819,80,16.28,160-37.653,240-58.626s160-10.986,240,0,160,20.974,240,15.98,160-26.966,240-26.666c80-.3,160,21.673,200,31.96l40,10.687V319.638H0Z"/>
	<path fill="rgb(255 255 255 / 3%)" transform="translate(0 0.362)" d="M0,159.839l40-26.666c40-26.267,120-80.2,200-95.88,80-16.28,160,5.693,240,26.666s160,42.946,240,58.626c80,16.28,160,26.267,240,21.273s160-26.966,240-26.666c80-.3,160,21.673,200,31.96l40,10.687v159.8H0Z"/>
	<path fill="rgb(255 255 255 / 3%)" transform="translate(0 -0.70)" d="M0,160l40,26.7c40,26.3,120,80.3,200,80,80,.3,160-53.7,240-69.4,80-16.3,160,5.7,240,5.4,80,.3,160-21.7,240-53.4,80-32.3,160-74.3,240-74.6,80,.3,160,42.3,200,64l40,21.3V320H0Z"/>
</svg>
