<svg
	xmlns="http://www.w3.org/2000/svg"
	xmlns:xlink="http://www.w3.org/1999/xlink" id="Capa_1" x="0px" y="0px" viewBox="0 0 455.4 455.4" style="enable-background:new 0 0 455.4 455.4;" xml:space="preserve">
	<style type="text/css">
		.st0{fill:#28a745;}
		.st1{fill:#40b45a;}
		.st2{fill:#FFFFFF;}
	</style>
	<path class="st0" d="M405.1,412.4c-69.7,56.9-287.3,56.9-355.6,0s-62.6-300.1,0-364.1s293-64,355.6,0S474.8,355.5,405.1,412.4z"></path>
	<path class="st1" d="M229,313.2C166.5,363,96.8,388.6,31.3,390C-17,307.5-7.1,107,49.8,48.7C101-3.9,261.7-13.9,354.2,18.8  C376.9,112.7,330,232.1,229,313.2z"></path>
	<path class="st2" d="M248.9,200.9c7.1-10,10-19.9,10-28.4s-2.8-17.1-8.5-22.8c-5.7-5.7-14.2-10-22.8-10c-17.1,0-34.1,12.8-49.8,37  l-49.8-28.4c12.8-19.9,27-35.6,42.7-45.5s35.6-15.6,58.3-15.6s44.1,7.1,62.6,22.8c18.5,15.6,27,35.6,27,61.2  c0,14.2-4.3,28.4-11.4,41.2s-19.9,29.9-39.8,49.8l-49.8,51.2h109.5v55.5H132.3v-45.5l81.1-82.5C230.5,223.6,241.8,210.8,248.9,200.9  z"></path>
</svg>
