<svg
	xmlns="http://www.w3.org/2000/svg"
	xmlns:xlink="http://www.w3.org/1999/xlink" id="Capa_1" x="0px" y="0px" viewBox="0 0 455.4 455.4" style="enable-background:new 0 0 455.4 455.4;" xml:space="preserve">
	<style type="text/css">
		.st0{fill:#28a745;}
		.st1{fill:#40b45a;}
		.st2{fill:#FFFFFF;}
	</style>
	<path class="st0" d="M405.5,412.8c-69.7,56.9-287.3,56.9-355.6,0c-69.7-56.9-62.6-300.1,0-364.1s293-64,355.6,0  S475.2,355.9,405.5,412.8z"></path>
	<path class="st1" d="M229.1,313.2C166.6,363,96.9,388.6,31.4,390C-16.9,307.5-7,107,49.9,48.7c51.2-52.6,211.9-62.6,304.4-29.9  C377,112.7,330.1,232.1,229.1,313.2z"></path>
	<path class="st2" d="M145.2,141.1V88.5H313v42.7l-56.9,64c21.3,4.3,38.4,12.8,51.2,28.4c11.4,14.2,18.5,31.3,18.5,51.2  c0,28.4-10,51.2-29.9,68.3s-44.1,24.2-75.4,24.2c-29.9,0-61.2-11.4-92.4-32.7l25.6-48.4c25.6,18.5,49.8,27,69.7,27  c12.8,0,22.8-2.8,29.9-8.5c8.5-5.7,11.4-14.2,11.4-25.6s-4.3-19.9-14.2-27c-8.5-7.1-21.3-10-38.4-10c-8.5,0-21.3,2.8-37,7.1v-45.5  l52.6-62.6L145.2,141.1L145.2,141.1z"></path>
</svg>
